<svg xmlns="http://www.w3.org/2000/svg" viewBox="0 0 193.75 134.89"><defs><style>.cls-1,.cls-2{fill:none;stroke:#f09128;stroke-linecap:round;}.cls-1{stroke-linejoin:round;stroke-width:3px;}.cls-2{stroke-miterlimit:10;stroke-width:5px;}.cls-3{fill:#f09128;}</style></defs><title>Trike</title><g id="Layer_23" data-name="Layer 23"><path class="cls-1" d="M144,115.69a310.93,310.93,0,0,1,44.8,10.94"/><path class="cls-1" d="M4.93,126.63a310.61,310.61,0,0,1,44.8-10.94"/><polygon class="cls-2" points="144.02 122.97 49.73 122.97 55.3 38.75 137.51 38.75 144.02 122.97"/><path class="cls-2" d="M122.75,48.52V32.89c0-11.11-11.58-20.13-25.88-20.13S71,21.78,71,32.89V48.52"/><circle class="cls-3" cx="79.54" cy="85.49" r="2.78"/><circle class="cls-3" cx="112.79" cy="85.49" r="2.78"/><path class="cls-3" d="M110.41,101,95.2,103.13h0c-.44-3.17,3.65-6.36,6.82-6.8h0c3.17-.44,8,1.52,8.39,4.69Z"/></g></svg>